<svg width="357" height="301" viewBox="0 0 357 301" fill="none" xmlns="http://www.w3.org/2000/svg">
<path d="M204.833 297.022L204.835 297.023C204.959 297.084 205.089 297.137 205.2 297.182C205.217 297.188 205.234 297.195 205.25 297.202C205.378 297.254 205.483 297.299 205.577 297.352C205.59 297.359 205.604 297.367 205.617 297.375C205.328 297.467 205.028 297.528 204.712 297.574C204.448 297.613 204.18 297.64 203.902 297.667L203.844 297.673C203.586 297.698 203.319 297.725 203.054 297.76L203.049 297.761C196.248 298.741 189.39 299.268 182.519 299.338L182.49 299.339L182.461 299.342C182.222 299.373 181.987 299.427 181.759 299.503H175.925C175.302 299.314 174.681 299.27 174.092 299.266C173.825 299.264 173.558 299.27 173.3 299.277L173.189 299.279C172.894 299.286 172.611 299.291 172.332 299.284C156.936 298.801 141.671 296.279 126.936 291.783L126.935 291.783C84.8312 279.05 48.8866 251.225 25.9683 213.624C25.4668 212.782 25.2485 212.053 25.2543 211.431C25.2599 210.822 25.4804 210.274 25.9404 209.776C26.3991 209.279 26.9235 209.021 27.5295 208.974C28.1501 208.925 28.9006 209.095 29.7974 209.543C37.9558 213.642 46.116 217.73 54.278 221.807L54.278 221.807L109.228 249.252C109.228 249.252 109.228 249.252 109.228 249.252C125.043 257.161 140.857 265.069 156.668 272.978L156.669 272.978C172.729 280.982 188.784 288.996 204.833 297.022Z" fill="#EBEBEB" stroke="white"/>
<path d="M195.068 169.504C194.808 169.697 194.532 169.872 194.257 170.046C194.132 170.125 194.007 170.204 193.884 170.284C191.146 172.377 188.337 174.369 185.531 176.359C185.132 176.642 184.733 176.924 184.334 177.208C182.162 178.745 180.024 180.352 177.894 181.952C177.071 182.571 176.249 183.188 175.426 183.801L195.068 169.504ZM195.068 169.504C197.964 167.372 200.86 165.241 203.757 163.111C212.339 156.798 220.92 150.486 229.471 144.131L195.068 169.504ZM32.2877 66.4102L32.2875 66.41C31.6113 65.5941 31.0034 64.7237 30.47 63.8077C29.8895 62.8047 29.8845 62.2769 30.0292 62.0192C30.1007 61.8921 30.2444 61.7578 30.5337 61.6463C30.8256 61.5338 31.2353 61.4572 31.7818 61.4321C34.1133 61.3853 36.4408 61.6464 38.7042 62.2088L38.7042 62.2089L38.7142 62.2112C49.9526 64.7585 60.7909 68.5943 71.6558 72.442C84.2194 76.9061 96.6587 81.7167 109.064 86.6226C133.468 96.2911 157.73 106.339 181.862 116.618C184.485 117.735 187.105 118.869 189.726 120.002C191.137 120.613 192.548 121.223 193.96 121.831L193.96 121.831L215.352 131.029L215.355 131.031C215.872 131.249 216.375 131.457 216.921 131.67C216.923 131.671 216.925 131.673 216.928 131.674C216.931 131.676 216.935 131.678 216.938 131.68C216.947 131.686 216.957 131.692 216.969 131.699C216.975 131.704 216.984 131.709 216.994 131.716C217.024 131.735 217.066 131.762 217.102 131.784L217.34 131.388L217.512 131.528L217.726 131.264L218.064 130.847L217.625 130.54C211.547 126.283 205.462 122.039 199.369 117.808C196.732 115.969 194.075 114.132 191.419 112.295C188.944 110.583 186.469 108.872 184.011 107.16L184.009 107.158C183.879 107.069 183.731 106.993 183.616 106.934L183.606 106.929C183.476 106.863 183.378 106.812 183.297 106.758C183.216 106.704 183.188 106.669 183.179 106.655L183.179 106.655C183.178 106.654 183.176 106.651 183.176 106.639C183.193 106.625 183.233 106.6 183.319 106.569C183.408 106.537 183.51 106.511 183.641 106.478L183.645 106.477C183.763 106.446 183.913 106.409 184.051 106.356L184.053 106.355C198.055 100.961 212.118 95.7371 226.244 90.6835L226.244 90.6834C247.158 83.1947 268.115 75.8695 289.442 69.6763L289.303 69.1961L289.442 69.6762C297.763 67.2588 306.128 64.9375 314.704 63.6077L314.704 63.6079L314.715 63.6059C316.925 63.2129 319.171 63.0697 321.413 63.1788C321.992 63.2145 322.567 63.3081 323.128 63.4583C323.835 63.6602 324.176 63.9561 324.315 64.2633C324.455 64.5737 324.454 65.039 324.152 65.7266C323.625 66.7925 322.947 67.7763 322.138 68.647L322.132 68.6533L322.126 68.6597C317.115 74.4394 311.308 79.3883 305.457 84.3363C289.275 98.0147 272.548 111.003 255.668 123.803C253.462 125.475 251.236 127.135 249.012 128.793L248.831 128.928C246.667 130.54 244.505 132.152 242.367 133.77C241.252 134.614 240.138 135.458 239.025 136.302C235.747 138.786 232.471 141.27 229.173 143.729C220.623 150.084 212.043 156.395 203.46 162.708C200.564 164.839 197.668 166.969 194.772 169.102L194.771 169.102C194.525 169.284 194.275 169.443 194.008 169.611C193.88 169.693 193.747 169.776 193.61 169.866L193.595 169.876L193.58 169.887C190.85 171.974 188.05 173.96 185.243 175.95C184.843 176.233 184.444 176.516 184.045 176.799C181.867 178.342 179.72 179.955 177.588 181.557C176.768 182.173 175.95 182.788 175.133 183.396C174.764 183.656 174.554 183.734 174.393 183.738C174.244 183.742 174.037 183.684 173.674 183.405L173.674 183.404C154.171 168.432 134.779 153.31 115.499 138.041L115.498 138.04C102.725 127.973 90.0734 117.755 77.5448 107.388L77.5446 107.388C66.9867 98.6633 56.4969 89.8682 46.4147 80.5975C46.2599 80.455 46.1052 80.3127 45.9504 80.1703C41.1695 75.7713 36.4177 71.3991 32.2877 66.4102Z" fill="#EBEBEB" stroke="white"/>
<path d="M190.431 266.608C190.557 266.534 190.682 266.458 190.801 266.373C232.12 237.455 273.368 208.411 314.095 178.636M190.431 266.608L353.714 142.713C354.647 142.872 355.552 143.119 355.908 144.087C356.298 145.163 355.766 145.993 355.014 146.751C351.831 149.971 348.283 152.761 344.739 155.548C344.546 155.7 344.352 155.852 344.159 156.004C334.302 163.762 324.221 171.235 314.095 178.636M190.431 266.608L190.245 266.476C190.211 266.452 190.179 266.424 190.15 266.393L189.837 266.688L189.795 266.62L190.139 266.398C190.13 266.383 190.123 266.366 190.118 266.349L190.084 266.231M314.095 178.636L313.8 178.232C323.924 170.832 334 163.364 343.85 155.611C344.041 155.461 344.232 155.31 344.424 155.16C347.973 152.369 351.498 149.597 354.658 146.4L354.659 146.399C355.018 146.037 355.285 145.696 355.426 145.35C355.56 145.022 355.589 144.673 355.438 144.257C355.188 143.583 354.573 143.367 353.63 143.206L353.625 143.205C352.588 143.017 351.533 142.953 350.481 143.014C343.862 143.451 337.406 144.951 330.974 146.571L330.852 146.087L330.974 146.571C314.778 150.644 298.863 155.678 282.98 160.848C257.892 169.049 233.001 177.827 208.183 186.826L208.183 186.826C204.14 188.291 200.109 189.784 196.075 191.278C194.057 192.026 192.039 192.773 190.019 193.517L189.998 193.525L189.976 193.531C189.844 193.567 189.722 193.597 189.605 193.626C189.362 193.687 189.144 193.741 188.92 193.821C188.919 193.821 188.917 193.821 188.916 193.822L150.813 208.017C150.813 208.017 150.813 208.017 150.813 208.017C144.506 210.368 138.2 212.731 131.897 215.104L131.567 215.228L131.339 214.96L131.153 214.74L130.792 214.315L131.254 214.002C132.487 213.169 133.718 212.332 134.951 211.494C138.589 209.022 142.234 206.545 145.929 204.145L146.201 204.565L145.929 204.145C151.811 200.327 157.645 196.439 163.483 192.549C165.84 190.978 168.197 189.407 170.558 187.84C170.672 187.765 170.799 187.699 170.897 187.649C171.006 187.592 171.089 187.549 171.159 187.504C171.188 187.486 171.209 187.47 171.224 187.458C171.209 187.45 171.187 187.441 171.156 187.429C171.077 187.402 170.983 187.38 170.855 187.352L170.84 187.348C170.729 187.324 170.583 187.292 170.451 187.244C160.516 183.673 150.58 180.114 140.642 176.569C123.054 170.343 105.387 164.352 87.6416 158.595C72.4664 153.684 57.2497 148.918 41.8385 144.806L41.8382 144.806C31.7861 142.118 21.7588 139.485 11.4483 138.226C8.67382 137.891 5.94316 137.689 3.26721 138.331C2.45234 138.531 2.00879 138.814 1.76146 139.17C1.51033 139.531 1.3941 140.065 1.45393 140.92L1.45422 140.924L1.45421 140.924C1.49244 141.543 1.74474 142.025 2.11705 142.471C2.39469 142.803 2.71129 143.087 3.05286 143.394C3.19499 143.521 3.34144 143.653 3.4912 143.793L3.49147 143.793C7.15554 147.234 11.0631 150.399 15.0115 153.535C33.1649 167.925 51.7749 181.706 70.446 195.426M314.095 178.636L313.8 178.232C273.077 208.004 231.833 237.046 190.514 265.963L190.51 265.966C190.368 266.068 190.233 266.146 190.084 266.231M190.084 266.231L190.045 266.097L189.796 266.014L189.78 266.008L188.807 265.684L189.15 266.65C189.168 266.7 189.189 266.749 189.213 266.797M190.084 266.231C190.079 266.234 190.075 266.236 190.07 266.239C190.065 266.214 190.061 266.189 190.059 266.164L189.736 266.192L189.718 266.194L189.561 266.208L189.063 266.252C189.071 266.344 189.087 266.435 189.111 266.524L189.594 266.395L189.656 266.378L189.676 266.373L189.975 266.293C189.89 266.342 189.798 266.394 189.698 266.455L189.642 266.475L189.621 266.483L189.617 266.494L189.464 266.538L189.158 266.627C189.159 266.633 189.161 266.639 189.163 266.646C189.178 266.696 189.197 266.745 189.219 266.793M189.213 266.797C188.439 267.345 187.664 267.893 186.888 268.441C184.36 270.227 181.828 272.016 179.318 273.83C179.196 273.919 179.115 273.945 179.07 273.953C179.03 273.961 178.993 273.957 178.947 273.941C178.893 273.922 178.826 273.885 178.732 273.82C178.686 273.787 178.639 273.752 178.584 273.711C178.532 273.671 178.472 273.626 178.41 273.582L178.409 273.581C171.901 268.948 165.403 264.294 158.917 259.621L158.916 259.62C155.594 257.235 152.269 254.856 148.944 252.477C140.9 246.72 132.857 240.964 124.851 235.133L124.85 235.133C106.677 221.954 88.5424 208.718 70.446 195.426M189.213 266.797C189.215 266.796 189.217 266.794 189.219 266.793M189.213 266.797C189.239 266.846 189.267 266.894 189.299 266.94L189.515 266.8L189.463 266.957L189.479 266.962L189.539 266.785L189.777 266.632L189.825 266.699L189.786 266.735L189.421 267.078C189.456 267.115 189.493 267.151 189.531 267.184C188.747 267.74 187.961 268.295 187.175 268.85C184.648 270.636 182.119 272.423 179.611 274.235C179.018 274.664 178.653 274.389 178.269 274.099C178.219 274.062 178.17 274.024 178.119 273.988L189.219 266.793M70.446 195.426C70.446 195.426 70.4459 195.426 70.4459 195.426L70.1499 195.829L70.446 195.426ZM171.254 187.431C171.257 187.427 171.259 187.424 171.259 187.424C171.26 187.424 171.259 187.426 171.254 187.431Z" fill="#EBEBEB" stroke="white"/>
<path d="M152.437 79.0647L152.437 79.0648C160.848 86.8529 169.363 94.5208 177.903 102.169C178.247 102.476 178.416 102.543 178.516 102.548C178.595 102.552 178.754 102.522 179.091 102.212L179.092 102.211C179.345 101.98 179.599 101.747 179.853 101.514C181.172 100.302 182.51 99.0735 183.901 97.9354C186.538 95.7707 189.098 93.5517 191.613 91.2343L191.622 91.2263L191.631 91.2187C195.989 87.5691 200.193 83.7496 204.408 79.9206C205.425 78.9964 206.443 78.0717 207.463 77.1487L207.463 77.1486C212.247 72.8251 216.998 68.4559 221.716 64.0409L152.437 79.0647ZM152.437 79.0647C141.228 68.6936 130.149 58.1938 119.416 47.3387C110.054 37.8444 100.825 28.2702 92.7058 17.7145L92.3095 18.0193M152.437 79.0647L92.3095 18.0193M221.717 64.0399C227.526 58.5453 233.33 53.0549 239.003 47.4554C246.498 40.008 253.849 32.4345 260.558 24.2733L260.564 24.265L260.565 24.2651C263.144 21.2601 265.567 18.1245 267.825 14.8706C269.424 12.4568 270.88 10.0462 271.435 7.2356L271.437 7.22161L271.441 7.2078C271.594 6.61161 271.562 5.98267 271.348 5.40543C271.135 4.8282 270.75 4.33041 270.246 3.97877L270.236 3.97155L270.226 3.96382C269.021 3.03004 267.737 3.25158 266.236 3.51042C266.148 3.52559 266.059 3.54089 265.97 3.55609C260.254 4.5378 254.743 6.34408 249.21 8.18061C238.192 11.8412 227.342 15.9746 216.515 20.1884C215.968 20.4021 215.421 20.6157 214.873 20.8294C207.129 23.8521 199.376 26.8779 191.72 30.1333L191.71 30.1375L191.71 30.1374C190.772 30.5126 189.834 30.8858 188.895 31.259C186.75 32.1119 184.606 32.9647 182.471 33.8392C168.286 39.6624 154.142 45.5972 140.041 51.6438L140.04 51.644C139.974 51.6724 139.91 51.7053 139.829 51.748C139.798 51.7639 139.765 51.7812 139.728 51.8001C139.606 51.8625 139.452 51.9378 139.28 51.9881C139.104 52.0399 138.898 52.0695 138.672 52.0311C138.443 51.9924 138.227 51.89 138.026 51.7265L137.495 51.2959L138.066 50.9203L171.677 28.8195C171.565 28.7365 171.436 28.6796 171.299 28.6531L171.25 28.6436L171.204 28.6249C170.069 28.1601 168.935 27.6951 167.8 27.2301C162.321 24.9844 156.844 22.7398 151.351 20.5327C149.305 19.7109 147.257 18.9335 145.204 18.1546C143.67 17.5723 142.133 16.9892 140.594 16.3859L140.592 16.3852C128.066 11.4156 115.428 6.78448 102.488 3.03242C102.332 2.98729 102.177 2.94212 102.021 2.89698C97.7487 1.65646 93.5423 0.435108 89.1085 0.502672L221.717 64.0399ZM221.717 64.0399C221.717 64.0401 221.717 64.0402 221.717 64.0403L221.717 64.0406L221.717 64.0399ZM92.3095 18.0193L92.7058 17.7144C90.2413 14.5106 87.9095 11.2599 86.2898 7.59394C85.9623 6.83429 85.698 6.04882 85.4997 5.24554L85.4997 5.24554M92.3095 18.0193L85.4997 5.24554M85.4997 5.24554L85.4987 5.24168M85.4997 5.24554L85.4987 5.24168M85.4987 5.24168C85.1355 3.81941 85.3666 2.65737 85.98 1.85433M85.4987 5.24168L85.98 1.85433M85.98 1.85433C86.5934 1.05127 87.6515 0.52561 89.1083 0.502676L85.98 1.85433Z" fill="#EBEBEB" stroke="white"/>
<path d="M326.698 211.382L326.699 211.382C327.763 210.896 328.8 210.976 329.565 211.407C330.319 211.833 330.842 212.619 330.872 213.645C330.819 214.312 330.597 214.955 330.227 215.513L330.227 215.513L330.22 215.524C325.779 222.605 320.844 229.363 315.452 235.747L315.451 235.748C288.981 267.165 252.541 288.52 212.23 296.238L212.222 296.24L212.215 296.241C211.968 296.296 211.712 296.296 211.466 296.241C211.219 296.186 210.987 296.077 210.787 295.922L210.776 295.914L210.765 295.906C202.117 289.939 193.471 283.959 184.827 277.967C184.528 277.759 184.318 277.611 184.175 277.495C184.344 277.399 184.591 277.281 184.944 277.117C209.122 265.937 233.296 254.732 257.463 243.501L257.463 243.501C276.061 234.853 294.663 226.206 313.269 217.561L313.27 217.561C317.729 215.478 322.205 213.418 326.698 211.382Z" fill="#EBEBEB" stroke="white"/>
<path d="M106.164 233.897V154.324H73.5966L20 239.754V261.692H76.6672V285.676H106.164V261.692H119.098V233.897H106.164ZM76.6672 193.739V233.897H52.5674L76.6672 193.739Z" fill="#84C448"/>
<path d="M183.767 288C199.121 288 211.682 281.679 221.359 269.036C230.944 256.394 235.782 240.033 235.782 219.954C235.782 199.967 230.944 183.606 221.359 170.964C211.682 158.321 199.121 152 183.767 152C168.507 152 156.039 158.321 146.454 170.964C136.777 183.606 131.939 199.967 131.939 219.954C131.939 240.033 136.777 256.394 146.454 269.036C156.039 281.679 168.507 288 183.767 288ZM183.767 259.554C177.44 259.554 172.322 255.836 168.321 248.399C164.32 241.055 162.273 231.573 162.273 219.954C162.273 208.427 164.32 198.945 168.321 191.508C172.322 184.071 177.44 180.353 183.767 180.353C190.281 180.353 195.585 184.071 199.586 191.415C203.587 198.759 205.541 208.334 205.541 219.954C205.541 231.666 203.494 241.148 199.493 248.492C195.492 255.836 190.188 259.554 183.767 259.554Z" fill="#84C448"/>
<path d="M335.066 233.897V154.324H302.499L248.902 239.754V261.692H305.569V285.676H335.066V261.692H348V233.897H335.066ZM305.569 193.739V233.897H281.47L305.569 193.739Z" fill="#84C448"/>
<path d="M142.69 134V105.6H158.57V107.88H145.13V118.08H157.49V120.36H145.13V131.72H158.97V134H142.69ZM164.597 134V113.52H166.757L166.917 117.4C167.423 116.12 168.197 115.107 169.237 114.36C170.303 113.613 171.53 113.24 172.917 113.24C173.343 113.24 173.743 113.28 174.117 113.36C174.517 113.413 174.85 113.493 175.117 113.6L174.797 115.84C174.503 115.733 174.183 115.667 173.837 115.64C173.517 115.587 173.197 115.56 172.877 115.56C171.703 115.56 170.677 115.867 169.797 116.48C168.917 117.067 168.223 117.907 167.717 119C167.237 120.093 166.997 121.373 166.997 122.84V134H164.597ZM179.284 134V113.52H181.444L181.604 117.4C182.111 116.12 182.884 115.107 183.924 114.36C184.991 113.613 186.218 113.24 187.604 113.24C188.031 113.24 188.431 113.28 188.804 113.36C189.204 113.413 189.538 113.493 189.804 113.6L189.484 115.84C189.191 115.733 188.871 115.667 188.524 115.64C188.204 115.587 187.884 115.56 187.564 115.56C186.391 115.56 185.364 115.867 184.484 116.48C183.604 117.067 182.911 117.907 182.404 119C181.924 120.093 181.684 121.373 181.684 122.84V134H179.284ZM202.03 134.6C200.59 134.6 199.27 134.333 198.07 133.8C196.87 133.267 195.817 132.52 194.91 131.56C194.03 130.573 193.337 129.427 192.83 128.12C192.35 126.787 192.11 125.333 192.11 123.76C192.11 122.213 192.35 120.787 192.83 119.48C193.337 118.147 194.044 116.987 194.95 116C195.857 115.013 196.91 114.253 198.11 113.72C199.337 113.187 200.67 112.92 202.11 112.92C203.55 112.92 204.87 113.187 206.07 113.72C207.27 114.253 208.31 115.013 209.19 116C210.097 116.96 210.79 118.107 211.27 119.44C211.777 120.747 212.03 122.187 212.03 123.76C212.03 125.307 211.777 126.747 211.27 128.08C210.79 129.387 210.097 130.533 209.19 131.52C208.284 132.507 207.217 133.267 205.99 133.8C204.79 134.333 203.47 134.6 202.03 134.6ZM202.07 132.4C203.164 132.4 204.164 132.187 205.07 131.76C206.004 131.333 206.804 130.733 207.47 129.96C208.137 129.187 208.657 128.28 209.03 127.24C209.404 126.173 209.59 125.013 209.59 123.76C209.59 122.507 209.404 121.36 209.03 120.32C208.657 119.253 208.137 118.333 207.47 117.56C206.804 116.787 206.004 116.187 205.07 115.76C204.164 115.333 203.164 115.12 202.07 115.12C200.977 115.12 199.964 115.333 199.03 115.76C198.124 116.187 197.337 116.787 196.67 117.56C196.004 118.333 195.484 119.253 195.11 120.32C194.737 121.36 194.55 122.507 194.55 123.76C194.55 125.013 194.737 126.173 195.11 127.24C195.484 128.28 196.004 129.187 196.67 129.96C197.337 130.733 198.124 131.333 199.03 131.76C199.964 132.187 200.977 132.4 202.07 132.4ZM216.862 134V113.52H219.022L219.182 117.4C219.689 116.12 220.462 115.107 221.502 114.36C222.569 113.613 223.796 113.24 225.182 113.24C225.609 113.24 226.009 113.28 226.382 113.36C226.782 113.413 227.116 113.493 227.382 113.6L227.062 115.84C226.769 115.733 226.449 115.667 226.102 115.64C225.782 115.587 225.462 115.56 225.142 115.56C223.969 115.56 222.942 115.867 222.062 116.48C221.182 117.067 220.489 117.907 219.982 119C219.502 120.093 219.262 121.373 219.262 122.84V134H216.862Z" fill="#353D46"/>
</svg>
