<svg width="105" height="105" viewBox="0 0 105 105" fill="none" xmlns="http://www.w3.org/2000/svg">
<path d="M13.1613 25.5048C13.1613 18.6872 18.6852 13.1633 25.5028 13.1578H31.1196C34.3783 13.1578 37.5005 11.8642 39.8149 9.57161L43.7395 5.64152C48.5484 0.805329 56.3649 0.783496 61.2011 5.5924L61.2066 5.59785L61.2557 5.64152L65.1858 9.57161C67.5002 11.8696 70.6224 13.1578 73.8811 13.1578H79.4924C86.31 13.1578 91.8394 18.6818 91.8394 25.5048V31.1107C91.8394 34.3694 93.1276 37.4971 95.4256 39.8115L99.3557 43.7416C104.192 48.5505 104.219 56.367 99.4103 61.2032L99.4049 61.2086L99.3557 61.2577L95.4256 65.1878C93.1276 67.4968 91.8394 70.619 91.8394 73.8777V79.4944C91.8394 86.3121 86.3155 91.836 79.4979 91.836H79.4924H73.8702C70.6115 91.836 67.4838 93.1297 65.1749 95.4277L61.2448 99.3523C56.4414 104.189 48.6303 104.216 43.7941 99.4178C43.7886 99.4124 43.7832 99.4069 43.7777 99.4014L43.7286 99.3523L39.804 95.4277C37.495 93.1297 34.3674 91.8415 31.1087 91.836H25.5028C18.6852 91.836 13.1613 86.3121 13.1613 79.4944V73.8668C13.1613 70.6081 11.8676 67.4858 9.56959 65.1769L5.64496 61.2468C0.808766 56.4434 0.781474 48.6323 5.58492 43.7961C5.58492 43.7907 5.59037 43.7852 5.59583 43.7798L5.64496 43.7306L9.56959 39.8005C11.8676 37.4862 13.1613 34.3639 13.1613 31.0998V25.5048" stroke="#8CC63F" stroke-width="3" stroke-linecap="round" stroke-linejoin="round"/>
<path d="M38.4707 66.5277L66.5272 38.4712" stroke="#8CC63F" stroke-width="3" stroke-linecap="round" stroke-linejoin="round"/>
<path d="M66.1138 66.1379H66.163" stroke="#8CC63F" stroke-width="3" stroke-linecap="round" stroke-linejoin="round"/>
<path d="M38.8179 38.8459H38.8671" stroke="#8CC63F" stroke-width="3" stroke-linecap="round" stroke-linejoin="round"/>
</svg>
