<svg width="77" height="63" viewBox="0 0 77 63" fill="none" xmlns="http://www.w3.org/2000/svg">
<path d="M1.10748 3.65123e-07C0.496448 0.00216148 0.00216242 0.496244 0 1.10702C0 15.1099 12.4469 26.6634 25.5653 26.6705C35.9908 26.6571 45.9815 19.338 49.7061 9.18609L56.4074 1.86023C57.0611 1.14695 56.5565 -0.00074731 55.5887 3.65123e-07H1.10748ZM2.2649 2.22272H53.0589L48.4053 7.3085C48.1774 7.54779 47.7533 7.96099 47.6931 8.22017C44.4379 17.5221 35.0568 24.4334 25.5653 24.4456C14.1342 24.4394 2.94868 14.3709 2.2649 2.22272ZM43.1459 8.99074C42.9454 8.99404 42.7496 9.05146 42.5791 9.15692C42.4086 9.26239 42.2698 9.41197 42.1774 9.58983C41.7046 10.4648 41.1677 11.3051 40.5683 12.0991C40.4703 12.2144 40.3969 12.3486 40.3525 12.4933C40.3082 12.638 40.2939 12.7902 40.3105 12.9407C40.3272 13.0911 40.3743 13.2366 40.4492 13.3681C40.524 13.4997 40.625 13.6146 40.7458 13.7058C40.8667 13.7969 41.0049 13.8625 41.1519 13.8984C41.299 13.9343 41.4519 13.9398 41.6012 13.9146C41.7505 13.8893 41.893 13.8339 42.0201 13.7516C42.1472 13.6694 42.2562 13.562 42.3403 13.4362C43.0057 12.5547 43.6109 11.6229 44.1383 10.6469C44.2345 10.4761 44.2837 10.2829 44.281 10.0868C44.2784 9.89084 44.2239 9.69902 44.1231 9.53085C44.0223 9.36269 43.8789 9.22415 43.7073 9.12929C43.5356 9.03443 43.342 8.98663 43.1459 8.99074ZM39.3696 14.0027C39.0816 14.0119 38.8083 14.1325 38.6074 14.3392C37.9 15.0369 37.1388 15.6804 36.3426 16.2667C35.5463 16.8529 34.7129 17.3824 33.8475 17.8426C32.9821 18.3027 32.0847 18.6947 31.17 19.0147C30.2553 19.3347 29.3242 19.5794 28.3796 19.7462C27.435 19.913 26.4802 19.9989 25.524 20.0002C25.376 19.9969 25.2287 20.0232 25.091 20.0776C24.9532 20.1319 24.8277 20.2133 24.7218 20.3168C24.6159 20.4203 24.5318 20.544 24.4743 20.6804C24.4169 20.8169 24.3873 20.9635 24.3873 21.1115C24.3873 21.2596 24.4169 21.4061 24.4743 21.5426C24.5318 21.6791 24.6159 21.8027 24.7218 21.9062C24.8277 22.0098 24.9532 22.0911 25.091 22.1455C25.2287 22.1998 25.376 22.2262 25.524 22.2229C26.6134 22.2214 27.6993 22.1248 28.7661 21.9364C29.833 21.7479 30.8776 21.4655 31.9018 21.1072C32.926 20.7489 33.9272 20.3144 34.8898 19.8026C35.8524 19.2909 36.7805 18.7049 37.6628 18.0553C38.5452 17.4056 39.3831 16.6964 40.1666 15.9237C40.3313 15.7691 40.4449 15.568 40.4924 15.3472C40.5399 15.1265 40.519 14.8965 40.4324 14.6879C40.3459 14.4793 40.1978 14.302 40.008 14.1796C39.8181 14.0572 39.5955 13.9955 39.3696 14.0027ZM16.5101 26.6423C16.24 26.6596 15.9855 26.7749 15.7943 26.9664C15.6031 27.1579 15.4884 27.4125 15.4716 27.6825C15.4548 27.9526 15.5371 28.2194 15.7031 28.4331C15.8691 28.6468 16.1074 28.7927 16.3733 28.8433C17.5396 29.1594 18.7634 29.3959 20.0084 29.5835V33.3408H13.3353C12.4099 33.3408 11.5802 33.7792 11.0465 34.3741C10.5129 34.9689 10.217 35.6786 10.0368 36.3992L4.47333 58.633C4.21439 59.6683 4.67621 60.6668 5.33325 61.2746C5.9903 61.8824 6.85519 62.234 7.78055 62.234H43.3587C44.2841 62.234 45.1403 61.8825 45.7973 61.2746C46.4544 60.6668 46.9162 59.6683 46.6573 58.633L41.1025 36.3992C40.9223 35.6786 40.6177 34.9689 40.0841 34.3741C39.5504 33.7792 38.7185 33.3408 37.7931 33.3408H31.1309V29.5835C32.3874 29.3943 33.6226 29.157 34.7986 28.8368C35.0661 28.7731 35.3005 28.6127 35.4565 28.3864C35.6126 28.1601 35.6792 27.884 35.6436 27.6115C35.608 27.339 35.4726 27.0893 35.2636 26.9107C35.0546 26.7321 34.7868 26.6373 34.512 26.6444C34.4117 26.6477 34.3124 26.6645 34.2166 26.6944C28.9251 28.1351 22.2446 28.1391 16.9465 26.703C16.8066 26.6539 16.6582 26.6332 16.5101 26.6422L16.5101 26.6423ZM22.2342 29.8461C24.4438 30.04 26.6956 30.0399 28.9051 29.8461V33.3408H22.2342V29.8461ZM13.3353 35.5636H37.7931C38.0996 35.5636 38.2382 35.6409 38.4337 35.8588C38.6292 36.0766 38.8255 36.4679 38.944 36.9419L44.4988 59.1648C44.5387 59.3241 44.5072 59.4374 44.286 59.6423C44.0645 59.8472 43.6653 60.0113 43.3587 60.0113H7.78055C7.47403 60.0113 7.06612 59.8472 6.84463 59.6423C6.62314 59.4374 6.59198 59.3241 6.63182 59.1648L11.4265 40.009H14.4536C14.6017 40.0123 14.7489 39.9859 14.8867 39.9316C15.0244 39.8772 15.1499 39.7958 15.2558 39.6923C15.3617 39.5888 15.4458 39.4652 15.5033 39.3287C15.5607 39.1922 15.5903 39.0457 15.5903 38.8976C15.5903 38.7496 15.5607 38.603 15.5033 38.4666C15.4458 38.3301 15.3617 38.2065 15.2558 38.103C15.1499 37.9994 15.0244 37.9181 14.8867 37.8637C14.7489 37.8093 14.6017 37.783 14.4536 37.7863H11.9846L12.1953 36.9419C12.3138 36.4679 12.5079 36.0766 12.7034 35.8588C12.8989 35.6409 13.0288 35.5636 13.3353 35.5636ZM18.7858 37.7863C18.4956 37.8067 18.2248 37.9398 18.0315 38.1573C17.8383 38.3747 17.7379 38.6591 17.7518 38.9496C17.7657 39.2402 17.8928 39.5137 18.106 39.7117C18.3191 39.9097 18.6013 40.0164 18.8922 40.009H20.0084C20.1565 40.0123 20.3037 39.9859 20.4414 39.9316C20.5792 39.8772 20.7047 39.7958 20.8106 39.6923C20.9164 39.5888 21.0006 39.4652 21.058 39.3287C21.1154 39.1922 21.145 39.0457 21.145 38.8976C21.145 38.7496 21.1154 38.603 21.058 38.4666C21.0006 38.3301 20.9164 38.2065 20.8106 38.103C20.7047 37.9994 20.5792 37.9181 20.4414 37.8637C20.3037 37.8093 20.1565 37.783 20.0084 37.7863H18.8922C18.8568 37.7846 18.8213 37.7846 18.7858 37.7863H18.7858ZM25.5479 41.1008C25.4719 41.1025 25.3962 41.1119 25.3221 41.129C23.3559 41.1905 21.5714 41.9845 20.232 43.2497C20.0987 43.3361 19.9854 43.4501 19.8998 43.5839C18.6798 44.8833 17.9053 46.5959 17.8065 48.4874C17.7008 48.7522 17.7008 49.0474 17.8065 49.3122C17.9103 51.2427 18.7162 52.9916 19.9823 54.3003C20.0445 54.3816 20.1176 54.4539 20.1995 54.5152C21.5976 55.8523 23.4871 56.6793 25.5653 56.6793C27.5797 56.6793 29.4146 55.8998 30.8008 54.6346C31.0241 54.5259 31.2045 54.3456 31.3133 54.1224C32.5754 52.7375 33.3545 50.9037 33.3545 48.8934C33.3545 46.8347 32.5386 44.9647 31.2221 43.571C31.1391 43.4449 31.0312 43.3371 30.9051 43.2541C29.5648 41.9879 27.7809 41.1922 25.815 41.129C25.7275 41.1089 25.6378 41.0995 25.5479 41.1009L25.5479 41.1008ZM24.4622 43.4494C24.4622 43.4502 24.4622 43.4509 24.4622 43.4517C24.4903 43.7256 24.6191 43.9793 24.8237 44.1637C25.0283 44.3481 25.2941 44.45 25.5696 44.4498C25.845 44.4495 26.1106 44.347 26.3148 44.1622C26.519 43.9774 26.6474 43.7234 26.6749 43.4494C27.3898 43.5924 28.052 43.8747 28.638 44.2613C28.4633 44.4751 28.3743 44.7461 28.3882 45.0218C28.4021 45.2974 28.5179 45.5581 28.7132 45.7533C28.9084 45.9485 29.1692 46.0643 29.445 46.0781C29.7208 46.092 29.992 46.003 30.2058 45.8284C30.5929 46.4129 30.8768 47.0729 31.0202 47.7864C31.0194 47.7864 31.0187 47.7864 31.0179 47.7864C31.0172 47.7864 31.0165 47.7864 31.0157 47.7864C30.8105 47.7969 30.6122 47.8641 30.4428 47.9803C30.2734 48.0965 30.1395 48.2574 30.0559 48.445C29.9722 48.6326 29.9422 48.8397 29.969 49.0434C29.9958 49.247 30.0785 49.4392 30.2079 49.5988C30.2311 49.6275 30.2558 49.6551 30.2817 49.6813C30.4782 49.8791 30.7417 49.9961 31.0202 50.0091C30.8769 50.7186 30.5945 51.3759 30.2102 51.9583C30.0081 51.7896 29.7526 51.698 29.4892 51.7C29.2769 51.6999 29.0689 51.7607 28.89 51.875C28.7111 51.9894 28.5687 52.1525 28.4796 52.3452C28.3905 52.5379 28.3585 52.7521 28.3873 52.9624C28.4162 53.1727 28.5047 53.3704 28.6423 53.532C28.056 53.9205 27.3928 54.2021 26.6771 54.346C26.6545 54.0639 26.525 53.8011 26.3152 53.6111C26.1054 53.4211 25.831 53.3183 25.5479 53.3236C25.2724 53.3292 25.0087 53.4369 24.8081 53.6258C24.6075 53.8147 24.4842 54.0714 24.4622 54.346C23.7514 54.2042 23.0931 53.9265 22.51 53.5429C22.6506 53.3789 22.7404 53.1776 22.7684 52.9634C22.7963 52.7493 22.7613 52.5317 22.6676 52.3371C22.5738 52.1426 22.4254 51.9795 22.2405 51.8679C22.0555 51.7563 21.8421 51.701 21.6262 51.7087C21.3722 51.7162 21.1285 51.8104 20.9356 51.9757C20.5457 51.3879 20.2631 50.7227 20.1191 50.0047C20.3932 49.9766 20.647 49.8478 20.8315 49.6433C21.0159 49.4388 21.1179 49.1732 21.1176 48.8978C21.1174 48.6224 21.0149 48.357 20.83 48.1528C20.6451 47.9487 20.391 47.8204 20.1169 47.7929C20.2591 47.0786 20.5409 46.418 20.9269 45.8328C21.141 46.0071 21.4123 46.0957 21.688 46.0814C21.9638 46.0672 22.2245 45.9511 22.4195 45.7556C22.6145 45.5602 22.7299 45.2993 22.7434 45.0236C22.7569 44.7479 22.6675 44.477 22.4925 44.2634C23.0799 43.8749 23.7444 43.5922 24.4621 43.4494H24.4622ZM27.7911 46.675L24.7792 48.1141C23.6657 49.1639 25.3114 50.7998 26.3557 49.6813L27.7911 46.675Z" fill="#8CC63F"/>
<path d="M63.9393 40.4756C64.5251 41.0613 65.4749 41.0613 66.0607 40.4756L75.6066 30.9296C76.1924 30.3438 76.1924 29.3941 75.6066 28.8083C75.0208 28.2225 74.0711 28.2225 73.4853 28.8083L65 37.2936L56.5147 28.8083C55.9289 28.2225 54.9792 28.2225 54.3934 28.8083C53.8076 29.3941 53.8076 30.3438 54.3934 30.9296L63.9393 40.4756ZM63.5 -6.55668e-08L63.5 39.4149L66.5 39.4149L66.5 6.55668e-08L63.5 -6.55668e-08Z" fill="#8CC63F"/>
</svg>
