<svg width="85" height="69" viewBox="0 0 85 69" fill="none" xmlns="http://www.w3.org/2000/svg">
<path d="M59.741 0C59.3884 3.51742e-05 59.0503 0.139801 58.801 0.388557C58.5517 0.637313 58.4116 0.974688 58.4116 1.32648V15.9178H48.3007H46.4467C46.1505 15.9183 45.8629 16.0174 45.6296 16.1995C45.3963 16.3816 45.2306 16.6363 45.1589 16.923L44.5045 19.5397L38.2833 15.9541L39.6127 13.6534C39.7324 13.4528 39.7969 13.2242 39.7998 12.9907C39.8026 12.7572 39.7436 12.5271 39.6287 12.3237C39.5138 12.1202 39.3472 11.9506 39.1456 11.832C38.944 11.7134 38.7146 11.65 38.4806 11.6482C38.2419 11.6458 38.007 11.7075 37.8005 11.827C37.594 11.9464 37.4235 12.1191 37.307 12.327L33.3187 19.2185C33.1424 19.5235 33.0948 19.886 33.1863 20.2261C33.2779 20.5662 33.5011 20.8561 33.8068 21.032C34.1126 21.2079 34.4759 21.2554 34.8167 21.1641C35.1576 21.0727 35.4481 20.85 35.6244 20.5449L36.9538 18.2495L43.8346 22.2134L42.5 27.5349C42.4512 27.7303 42.4475 27.9342 42.4894 28.1312C42.5313 28.3281 42.6175 28.513 42.7416 28.6718C42.8657 28.8306 43.0244 28.9591 43.2057 29.0476C43.387 29.1361 43.5861 29.1823 43.7879 29.1826H44.9148C44.1809 32.7534 41.5801 35.625 38.1171 36.6907C36.2443 34.0245 33.8032 31.7159 30.8728 29.9547C29.1431 28.9152 27.3226 28.1136 25.4564 27.5504L23.5661 14.5032C23.4247 13.5256 23.0445 12.596 22.3769 11.8606C21.7093 11.1255 20.7046 10.6119 19.5935 10.6119H14.5406C14.188 10.6119 13.8499 10.7517 13.6006 11.0004C13.3513 11.2492 13.2112 11.5865 13.2112 11.9383V14.6898V27.1411C8.92752 28.1142 4.88447 30.2575 1.60989 33.5248C1.4823 33.647 1.38044 33.7934 1.31027 33.9554C1.24009 34.1174 1.20302 34.2918 1.20122 34.4682C1.19942 34.6447 1.23293 34.8198 1.29979 34.9832C1.36664 35.1465 1.4655 35.295 1.59057 35.4198C1.71564 35.5446 1.86441 35.6432 2.02817 35.7099C2.19192 35.7766 2.36737 35.8101 2.54424 35.8083C2.7211 35.8065 2.89583 35.7695 3.05819 35.6995C3.22055 35.6294 3.36728 35.5278 3.48978 35.4005C10.4059 28.4996 21.1234 27.1941 29.5018 32.2294C37.8802 37.2647 41.7342 47.3285 38.8545 56.6553C38.803 56.822 38.7849 56.9972 38.8013 57.1709C38.8177 57.3446 38.8682 57.5133 38.9499 57.6676C39.0316 57.8218 39.143 57.9584 39.2777 58.0697C39.4123 58.1809 39.5676 58.2646 39.7347 58.316C39.9018 58.3674 40.0774 58.3854 40.2515 58.3691C40.4255 58.3527 40.5947 58.3024 40.7492 58.2208C40.9038 58.1393 41.0407 58.0281 41.1522 57.8938C41.2637 57.7594 41.3476 57.6044 41.3991 57.4377C41.5758 56.8655 41.719 56.2886 41.8509 55.7123H61.2054C61.1557 56.153 61.0704 56.5851 61.0704 57.0387C61.0704 63.6165 66.443 68.9771 73.0352 68.9771C79.6274 68.9771 85 63.6165 85 57.0387C85 52.9129 82.8851 49.2668 79.6823 47.1212V22.5502C79.6823 18.8989 76.6947 15.9178 73.0352 15.9178H66.3881V1.32648C66.3881 0.974688 66.248 0.637313 65.9987 0.388557C65.7494 0.139801 65.4112 3.51742e-05 65.0587 0H59.741ZM61.0704 2.65297H63.7292V33.0636C63.7292 33.9012 63.1329 34.4885 62.3998 34.4885C61.6667 34.4885 61.0704 33.9012 61.0704 33.0636V2.65297ZM15.87 13.2648H19.5935C19.9553 13.2648 20.1697 13.3788 20.4088 13.6431C20.6478 13.9057 20.8564 14.3506 20.9333 14.8815L22.6729 26.9079C20.4157 26.5127 18.1274 26.4381 15.87 26.6903V14.6898V13.2648ZM47.4854 18.5708H48.3007H58.4116V26.5297H48.2903H45.4912L46.561 22.2704C46.693 22.0465 46.7562 21.7889 46.7428 21.5294L47.4854 18.5708ZM66.3881 18.5708H73.0352C75.2677 18.5708 77.0235 20.3228 77.0235 22.5502V26.5297H66.3881V18.5708ZM49.1056 21.2237C48.753 21.2237 48.4149 21.3635 48.1655 21.6122C47.9162 21.861 47.7762 22.1984 47.7762 22.5502C47.7762 22.902 47.9162 23.2394 48.1655 23.4882C48.4149 23.7369 48.753 23.8767 49.1056 23.8767C49.4582 23.8767 49.7963 23.7369 50.0456 23.4882C50.295 23.2394 50.435 22.902 50.435 22.5502C50.435 22.1984 50.295 21.861 50.0456 21.6122C49.7963 21.3635 49.4582 21.2237 49.1056 21.2237ZM54.4233 21.2237C54.0707 21.2237 53.7326 21.3635 53.4832 21.6122C53.2339 21.861 53.0939 22.1984 53.0939 22.5502C53.0939 22.902 53.2339 23.2394 53.4832 23.4882C53.7326 23.7369 54.0707 23.8767 54.4233 23.8767C54.7759 23.8767 55.114 23.7369 55.3633 23.4882C55.6126 23.2394 55.7527 22.902 55.7527 22.5502C55.7527 22.1984 55.6126 21.861 55.3633 21.6122C55.114 21.3635 54.7759 21.2237 54.4233 21.2237ZM70.3764 21.2237C70.0238 21.2237 69.6856 21.3635 69.4363 21.6122C69.187 21.861 69.0469 22.1984 69.0469 22.5502C69.0469 22.902 69.187 23.2394 69.4363 23.4882C69.6856 23.7369 70.0238 23.8767 70.3764 23.8767C70.7289 23.8767 71.0671 23.7369 71.3164 23.4882C71.5657 23.2394 71.7058 22.902 71.7058 22.5502C71.7058 22.1984 71.5657 21.861 71.3164 21.6122C71.0671 21.3635 70.7289 21.2237 70.3764 21.2237ZM47.5944 29.1826H48.2903H58.4116V33.0636C58.4116 35.2743 60.1869 37.1415 62.3998 37.1415C62.7477 37.136 63.0796 36.9946 63.3242 36.7477C65.0256 36.271 66.3881 34.9127 66.3881 33.0636V29.1826H69.0469V45.831C67.7858 46.2803 66.636 46.9335 65.6091 47.7534H42.3027C41.9563 44.6833 41.0047 41.7196 39.5348 39.0172C43.7798 37.4574 46.8582 33.6979 47.5944 29.1826ZM71.7058 29.1826H77.0235V34.4885H74.3646V37.1415H77.0235V39.7945H74.3646V42.4474H77.0235V45.831C75.7699 45.3845 74.4396 45.1004 73.0352 45.1004C72.5797 45.1004 72.1483 45.1801 71.7058 45.2299V29.1826ZM18.9651 31.82C18.5308 31.8144 18.16 31.8607 17.7499 32.0066C17.3399 32.1525 16.8431 32.5925 16.6801 33.0377C16.5281 33.4532 16.5675 33.6899 16.5763 33.8305C16.5474 33.857 16.2353 34.0878 15.1742 34.3072C14.1093 34.5274 13.7242 34.4342 13.6941 34.4315C13.646 34.2989 13.5949 34.0637 13.2891 33.7424C12.9618 33.3988 12.3319 33.1953 11.8973 33.2242C11.0283 33.2826 10.4575 33.6321 9.30081 34.2916C8.1441 34.9509 7.55366 35.2629 7.0626 35.9808C6.81707 36.3398 6.67247 36.9863 6.80295 37.442C6.92456 37.8668 7.0972 38.0276 7.18724 38.1364C7.17431 38.1656 7.06136 38.5461 6.33038 39.3489C5.60063 40.1503 5.23131 40.2965 5.20349 40.3126C5.08609 40.233 4.90436 40.0764 4.47127 39.9966C4.00411 39.909 3.37253 40.1162 3.03798 40.3955C2.36889 40.9521 2.11563 41.5672 1.56835 42.7791C1.02107 43.9909 0.727491 44.5945 0.753039 45.4631C0.765812 45.8974 1.0281 46.5024 1.40217 46.7948C1.75091 47.067 1.98717 47.1015 2.12401 47.1368C2.13065 47.1686 2.26288 47.5385 2.14478 48.6135C2.02645 49.6906 1.81479 50.0251 1.80204 50.054C1.6608 50.054 1.42262 50.0285 1.02308 50.2302C0.594517 50.4344 0.20546 50.9747 0.0987134 51.396C-0.114779 52.2386 0.045639 52.8873 0.316822 54.1889C0.588004 55.4902 0.703634 56.1436 1.23599 56.8315C1.50217 57.1753 2.0699 57.514 2.54464 57.531C2.98721 57.5575 3.19739 57.4338 3.32879 57.3807C3.35129 57.4073 3.68265 57.6247 4.222 58.5673C4.76081 59.5081 4.78136 59.9045 4.78804 59.9352C4.676 60.0228 4.4734 60.1449 4.26355 60.5311C4.03718 60.9479 4.03944 61.6095 4.20123 62.0131C4.5248 62.8198 5.03274 63.2538 6.0188 64.1479C7.00486 65.0416 7.48866 65.5046 8.32452 65.749C8.74245 65.871 9.40004 65.8122 9.79415 65.5469C10.1612 65.3002 10.2636 65.0857 10.3394 64.9666C10.3686 64.9666 10.7697 64.9667 11.7623 65.4018C12.7552 65.8483 13.0075 66.1548 13.0294 66.1739C12.99 66.3092 12.8937 66.5308 12.9515 66.9666C13.0139 67.4365 13.4087 67.9734 13.7772 68.205C14.5143 68.668 15.1793 68.7182 16.5036 68.8631C17.8279 69.009 18.4878 69.1006 19.3078 68.8061C19.7179 68.6602 20.2199 68.2201 20.3828 67.775C20.5338 67.3622 20.4905 67.1339 20.4815 66.9925C20.5074 66.966 20.8179 66.7325 21.8836 66.5107C22.9447 66.2905 23.3305 66.3888 23.3636 66.3915C23.4118 66.5241 23.4697 66.756 23.7739 67.0755C24.1011 67.419 24.7311 67.6225 25.1656 67.5936C25.9338 67.5432 26.5483 67.17 27.4609 66.6506C27.5661 66.6216 27.6672 66.5798 27.7621 66.5262C28.9188 65.8664 29.5093 65.5549 30.0003 64.837C30.2459 64.4783 30.3905 63.8313 30.26 63.3758C30.1376 62.9484 29.9652 62.7796 29.8757 62.6711C29.8895 62.6419 29.9986 62.2645 30.7274 61.4638C31.4587 60.6608 31.8281 60.5152 31.8543 60.5C31.9711 60.5796 32.1549 60.7363 32.5917 60.8161C33.0589 60.901 33.6905 60.6968 34.025 60.4171C34.694 59.8608 34.9473 59.2455 35.4946 58.0336C36.0419 56.8217 36.3354 56.2233 36.3099 55.3547C36.2971 54.9204 36.0348 54.31 35.6608 54.0179C35.314 53.747 35.0764 53.7161 34.9389 53.6811C34.9331 53.6519 34.7945 53.2779 34.913 52.1992C35.0309 51.1258 35.2415 50.7954 35.2557 50.7639C35.3969 50.7639 35.6351 50.7629 36.0347 50.5825C36.4633 50.3782 36.8523 49.8431 36.959 49.4218C37.1725 48.5793 37.0173 47.9302 36.7461 46.629C36.4749 45.3274 36.3594 44.6691 35.8269 43.9812C35.5607 43.6374 34.9878 43.3038 34.5131 43.2869C34.0706 43.2603 33.8603 43.3789 33.729 43.4319C33.7048 43.4054 33.3791 43.1905 32.8409 42.2505C32.3021 41.3095 32.2764 40.9134 32.2697 40.8826C32.3808 40.7951 32.5825 40.6702 32.7942 40.2815C33.0205 39.8648 33.0235 39.2029 32.8617 38.7996C32.5382 37.9928 32.0302 37.5586 31.0441 36.6648C30.0581 35.771 29.5744 35.3078 28.7384 35.0637C28.3205 34.9417 27.6576 35.0057 27.2636 35.271C26.8966 35.5177 26.7941 35.7322 26.7183 35.8513C26.6863 35.8513 26.2899 35.8514 25.3006 35.416C24.3105 34.9709 24.0571 34.665 24.0335 34.644C24.0726 34.5087 24.1644 34.2897 24.1062 33.8512C24.0438 33.3814 23.6542 32.8444 23.2857 32.6128C22.5486 32.1499 21.8837 32.0996 20.5594 31.9548V31.9599C19.8972 31.887 19.3994 31.8257 18.9651 31.82ZM50.435 31.8356V34.4885H55.7527V31.8356H50.435ZM18.9703 34.5248C19.0625 34.5248 19.2964 34.4861 20.2685 34.5922C21.2377 34.6983 21.4513 34.794 21.546 34.8046C21.5276 35.2052 21.4098 35.5285 21.6966 35.9912C22.1675 36.7505 22.9334 37.2568 24.2101 37.8307C25.4868 38.4048 26.3712 38.6451 27.2532 38.4939C27.7912 38.401 27.9565 38.0945 28.2451 37.8151C28.3157 37.8788 28.5304 37.9744 29.2525 38.6286C29.978 39.2863 30.099 39.4956 30.1665 39.5561C29.9156 39.8694 29.6253 40.0603 29.5849 40.6028C29.5186 41.4931 29.8353 42.3535 30.53 43.5667C31.2248 44.7796 31.8047 45.4878 32.6073 45.8828C33.0951 46.1242 33.4092 45.98 33.8068 45.9243C33.8273 46.0171 33.9461 46.2211 34.1444 47.173C34.3438 48.13 34.3177 48.3687 34.3365 48.4581C33.9492 48.5642 33.6032 48.5406 33.2512 48.9555C32.673 49.637 32.4223 50.5253 32.2697 51.9142C32.1171 53.303 32.1699 54.2173 32.5865 55.0076C32.8397 55.488 33.182 55.5503 33.5368 55.7382C33.4988 55.8231 33.4713 56.0554 33.0694 56.9455C32.6679 57.8348 32.5108 58.0112 32.4722 58.0958C32.0959 57.9552 31.8238 57.7386 31.2934 57.8678C30.4242 58.08 29.706 58.6472 28.7644 59.6814C27.8228 60.7155 27.3195 61.4871 27.1909 62.3706C27.1128 62.9075 27.3573 63.1557 27.5336 63.5157C27.4558 63.5608 27.2759 63.7438 26.4794 64.2049C26.4671 64.215 26.455 64.2254 26.4431 64.236C25.5954 64.7193 25.3619 64.7699 25.2798 64.8163C25.0586 64.4818 24.9628 64.1459 24.4593 63.9406C23.6311 63.6026 22.7145 63.636 21.3435 63.9095C19.9725 64.1939 19.1171 64.529 18.4925 65.1686C18.1124 65.5578 18.1618 65.9032 18.0927 66.2982C18.0004 66.2982 17.7665 66.337 16.7944 66.2309C15.8244 66.1247 15.6057 66.0238 15.5117 66.0132C15.5297 65.6132 15.6523 65.2877 15.3663 64.8267C14.8954 64.0674 14.1295 63.5613 12.8529 62.9872C11.5762 62.4134 10.6865 62.1779 9.80454 62.3291C9.26851 62.422 9.1064 62.7294 8.81786 63.0079C8.75009 62.9469 8.52994 62.8461 7.80521 62.1892C7.08378 61.5353 6.96665 61.3316 6.89643 61.2669C7.14709 60.9536 7.43769 60.7622 7.47805 60.2202C7.54437 59.3299 7.22245 58.4693 6.52772 57.2564C5.83298 56.0432 5.25818 55.3301 4.45569 54.935C3.96786 54.6936 3.65371 54.8482 3.25609 54.9039C3.23716 54.8137 3.11763 54.6053 2.91854 53.65C2.71994 52.6968 2.74507 52.4627 2.7264 52.3702C3.11347 52.264 3.46036 52.2773 3.81175 51.8624C4.38992 51.1808 4.63547 50.2977 4.78804 48.9089C4.94061 47.52 4.89299 46.6055 4.47646 45.8155C4.22352 45.3355 3.88075 45.2779 3.52613 45.09C3.5641 45.0051 3.59159 44.7676 3.99351 43.8776C4.39388 42.9909 4.55059 42.814 4.59071 42.7272C4.9668 42.8679 5.24045 43.0842 5.76953 42.9552C6.63877 42.743 7.35695 42.1706 8.29855 41.1365C9.24016 40.1024 9.73829 39.3359 9.86685 38.4524C9.94524 37.9136 9.70639 37.6621 9.52931 37.3021C9.61 37.257 9.771 37.0821 10.6198 36.5974C11.4673 36.1143 11.7008 36.0685 11.7831 36.0223C12.0044 36.356 12.0962 36.6877 12.5984 36.8928C13.4267 37.2308 14.3485 37.1922 15.7194 36.9187C17.0904 36.6343 17.9459 36.3041 18.5704 35.6648C18.9515 35.2745 18.9015 34.9305 18.9703 34.5352V34.5248ZM50.435 37.1415V39.7945H55.7527V37.1415H50.435ZM18.5289 39.7945C12.6709 39.7945 7.89351 44.5613 7.89349 50.4063C7.89351 56.2514 12.6709 61.0182 18.5289 61.0182C24.3869 61.0182 29.1642 56.2514 29.1643 50.4063C29.1642 44.5613 24.3869 39.7945 18.5289 39.7945ZM18.5289 42.4474C22.9499 42.4474 26.5054 45.995 26.5054 50.4063C26.5054 54.8177 22.9499 58.3652 18.5289 58.3652C14.1078 58.3652 10.5524 54.8177 10.5523 50.4063C10.5524 45.995 14.1078 42.4474 18.5289 42.4474ZM45.1173 42.4474V45.1004H55.7527V42.4474H45.1173ZM18.5289 45.1004C18.1763 45.1004 17.8381 45.2402 17.5888 45.4889C17.3395 45.7377 17.1994 46.0751 17.1994 46.4269C17.1994 46.7787 17.3395 47.1161 17.5888 47.3649C17.8381 47.6136 18.1763 47.7534 18.5289 47.7534C18.8815 47.7534 19.2196 47.6136 19.4689 47.3649C19.7182 47.1161 19.8583 46.7787 19.8583 46.4269C19.8583 46.0751 19.7182 45.7377 19.4689 45.4889C19.2196 45.2402 18.8815 45.1004 18.5289 45.1004ZM15.2936 46.971C15.0709 46.9641 14.8501 47.0131 14.6513 47.1136C14.4526 47.2141 14.2824 47.3628 14.1563 47.5461C13.9561 47.8354 13.8791 48.1922 13.9424 48.5381C14.0057 48.884 14.2041 49.1907 14.4939 49.3907C14.7838 49.5905 15.1414 49.6673 15.4881 49.6042C15.8348 49.541 16.1421 49.3431 16.3426 49.0539C16.5428 48.7646 16.6198 48.4078 16.5565 48.0619C16.4932 47.716 16.2948 47.4094 16.005 47.2093C15.7958 47.0633 15.5488 46.9806 15.2936 46.971ZM21.9303 46.971C21.6753 46.9678 21.4247 47.038 21.2085 47.173C21.06 47.2651 20.9312 47.3855 20.8295 47.5273C20.7277 47.6691 20.6549 47.8296 20.6154 47.9995C20.5758 48.1694 20.5702 48.3454 20.5989 48.5174C20.6277 48.6895 20.6901 48.8542 20.7827 49.0021C20.8754 49.1498 20.9963 49.2779 21.1386 49.3789C21.281 49.48 21.4418 49.552 21.6121 49.591C21.7823 49.63 21.9586 49.6351 22.1308 49.6061C22.303 49.577 22.4678 49.5144 22.6158 49.4218C22.9142 49.2359 23.1266 48.9395 23.2064 48.5977C23.2862 48.2558 23.227 47.8963 23.0416 47.5979C22.924 47.4088 22.7606 47.2522 22.5663 47.1426C22.3721 47.0331 22.1534 46.974 21.9303 46.971ZM73.0352 47.7534C78.1905 47.7534 82.3412 51.8949 82.3412 57.0387C82.3412 62.1826 78.1905 66.3241 73.0352 66.3241C67.8799 66.3241 63.7292 62.1826 63.7292 57.0387C63.7292 51.8949 67.8799 47.7534 73.0352 47.7534ZM18.5289 49.0799C18.1763 49.0799 17.8381 49.2196 17.5888 49.4684C17.3395 49.7171 17.1994 50.0545 17.1994 50.4063C17.1994 50.7581 17.3395 51.0955 17.5888 51.3443C17.8381 51.5931 18.1763 51.7328 18.5289 51.7328C18.8815 51.7328 19.2196 51.5931 19.4689 51.3443C19.7182 51.0955 19.8583 50.7581 19.8583 50.4063C19.8583 50.0545 19.7182 49.7171 19.4689 49.4684C19.2196 49.2196 18.8815 49.0799 18.5289 49.0799ZM42.4429 50.4063H63.0957C62.5479 51.2205 62.1382 52.1211 61.8026 53.0593H42.2975C42.3968 52.1732 42.4434 51.288 42.4429 50.4063ZM15.1638 51.3442C14.9087 51.3411 14.6581 51.4112 14.4419 51.5463C14.1435 51.7322 13.9312 52.0286 13.8513 52.3705C13.7715 52.7123 13.8308 53.0718 14.0161 53.3702C14.1084 53.5183 14.229 53.6468 14.3712 53.7484C14.5133 53.8499 14.6741 53.9225 14.8444 53.962C15.0146 54.0015 15.191 54.007 15.3635 53.9784C15.5359 53.9497 15.701 53.8875 15.8493 53.7951C15.9977 53.703 16.1265 53.5826 16.2283 53.4408C16.3301 53.299 16.4028 53.1386 16.4424 52.9687C16.4819 52.7988 16.4875 52.6228 16.4588 52.4507C16.4301 52.2787 16.3677 52.1139 16.2751 51.966C16.1568 51.7778 15.9931 51.6222 15.7989 51.5136C15.6048 51.405 15.3864 51.3467 15.1638 51.3442ZM21.7226 51.3442C21.5225 51.3572 21.3279 51.4153 21.1534 51.514C20.9789 51.6127 20.8291 51.7495 20.7152 51.9142C20.5149 52.2035 20.438 52.5603 20.5013 52.9062C20.5646 53.2521 20.7629 53.5588 21.0527 53.7588C21.3427 53.9586 21.7003 54.0354 22.0469 53.9722C22.3936 53.9091 22.7009 53.7112 22.9014 53.422C23.1017 53.1327 23.1786 52.7759 23.1153 52.43C23.052 52.0841 22.8537 51.7774 22.5639 51.5774C22.3178 51.4074 22.0213 51.3252 21.7226 51.3442ZM18.5289 53.0593C18.1763 53.0593 17.8381 53.1991 17.5888 53.4478C17.3395 53.6966 17.1994 54.034 17.1994 54.3858C17.1994 54.7376 17.3395 55.075 17.5888 55.3237C17.8381 55.5725 18.1763 55.7123 18.5289 55.7123C18.8815 55.7123 19.2196 55.5725 19.4689 55.3237C19.7182 55.075 19.8583 54.7376 19.8583 54.3858C19.8583 54.034 19.7182 53.6966 19.4689 53.4478C19.2196 53.1991 18.8815 53.0593 18.5289 53.0593ZM73.0352 53.0593C70.8483 53.0593 69.0469 54.8567 69.0469 57.0387C69.0469 59.2208 70.8483 61.0182 73.0352 61.0182C75.2221 61.0182 77.0235 59.2208 77.0235 57.0387C77.0235 54.8567 75.2221 53.0593 73.0352 53.0593ZM73.0352 55.7123C73.7852 55.7123 74.3646 56.2906 74.3646 57.0387C74.3646 57.7872 73.7852 58.3652 73.0352 58.3652C72.2852 58.3652 71.7058 57.7872 71.7058 57.0387C71.7058 56.2906 72.2852 55.7123 73.0352 55.7123ZM15.5844 66.6091H15.5896C15.6241 66.8691 15.5728 66.8939 15.6052 66.7697C15.6105 66.7448 15.5823 66.6474 15.5844 66.6091Z" fill="#8CC63F"/>
</svg>
