<svg width="16" height="16" viewBox="0 0 16 16" fill="none" xmlns="http://www.w3.org/2000/svg">
<path fill-rule="evenodd" clip-rule="evenodd" d="M4.43876 1.33361C5.18343 1.34361 5.7141 1.90161 6.38543 2.60761C6.55143 2.78161 6.73076 2.97161 6.93143 3.17161C7.9041 4.14495 7.62743 4.93895 7.4041 5.57628C7.16143 6.27161 6.95143 6.87161 8.20876 8.12895C9.4661 9.38628 10.0654 9.17628 10.7601 8.93161C11.3981 8.70895 12.1901 8.43028 13.1648 9.40361C13.3628 9.60161 13.5494 9.77894 13.7228 9.94361C14.4314 10.6183 14.9914 11.1509 15.0009 11.8976C15.0081 12.5336 14.6214 13.1829 13.6668 14.1376L13.2441 13.8509L13.6021 14.1996C13.3908 14.4163 12.8288 14.9936 11.7281 15.0003H11.7081C10.0468 15.0003 7.88076 13.6776 5.2701 11.0676C2.64876 8.44695 1.3241 6.27428 1.33404 4.60961C1.3401 3.50961 1.91676 2.94628 2.13343 2.73495L2.15192 2.71475L2.19676 2.66961C3.15343 1.71295 3.81076 1.31961 4.43876 1.33361ZM4.4261 2.33361H4.42076C4.12139 2.33361 3.66674 2.63361 3.03265 3.24954L2.90532 3.37459L2.90676 3.37428C2.90756 3.37428 2.89588 3.38676 2.87734 3.40567L2.83276 3.45028C2.67143 3.60695 2.33743 3.93295 2.33406 4.61495C2.32876 5.56895 2.9561 7.34028 5.97676 10.3603C8.98276 13.3656 10.7514 14.0003 11.7081 14.0003H11.7221C12.4041 13.9963 12.7294 13.6623 12.8861 13.5016C12.9334 13.4529 12.9721 13.4163 12.9994 13.3943C13.6641 12.7256 14.0041 12.2289 14.0008 11.9096C13.9968 11.5843 13.5921 11.2003 13.0328 10.6676C12.8548 10.4989 12.6614 10.3143 12.4574 10.1103C11.9281 9.58295 11.6674 9.67295 11.0908 9.87561C10.2941 10.1549 9.20276 10.5376 7.5021 8.83561C5.80076 7.13495 6.1821 6.04361 6.4601 5.24628C6.66143 4.67028 6.75343 4.40828 6.22476 3.87895C6.0181 3.67228 5.8321 3.47628 5.66076 3.29628C5.13143 2.74028 4.74943 2.33828 4.4261 2.33361ZM10.1648 3.70528C11.5522 3.97461 12.6235 5.04528 12.8935 6.43328C12.9462 6.70528 12.7695 6.96728 12.4988 7.01995C12.4662 7.02595 12.4342 7.02928 12.4022 7.02928C12.1675 7.02928 11.9588 6.86395 11.9122 6.62528C11.7202 5.63861 10.9595 4.87795 9.97416 4.68661C9.70283 4.63395 9.52616 4.37195 9.57883 4.10061C9.6315 3.82928 9.89816 3.65195 10.1648 3.70528ZM10.1249 1.33741C12.8436 1.63941 14.9549 3.74808 15.2596 6.46608C15.2902 6.74075 15.0929 6.98808 14.8189 7.01875C14.8002 7.02075 14.7809 7.02208 14.7622 7.02208C14.5109 7.02208 14.2949 6.83341 14.2662 6.57808C14.0136 4.32741 12.2656 2.58075 10.0142 2.33075C9.74023 2.30008 9.54223 2.05341 9.5729 1.77875C9.6029 1.50475 9.84756 1.30275 10.1249 1.33741Z" fill="black"/>
</svg>
