<svg width="23" height="22" viewBox="0 0 23 22" fill="none" xmlns="http://www.w3.org/2000/svg">
<path fill-rule="evenodd" clip-rule="evenodd" d="M11.2775 0H11.283C17.3481 0 22.2803 4.93488 22.2803 11C22.2803 17.0651 17.3481 22 11.283 22C9.0459 22 6.97102 21.3345 5.23165 20.1822L1.00352 21.5339L2.3744 17.4474C1.05577 15.6365 0.280273 13.4062 0.280273 11C0.280273 4.9335 5.2124 0 11.2775 0ZM15.5249 17.0858C16.365 16.9042 17.4183 16.2827 17.6836 15.5334C17.949 14.7826 17.949 14.1432 17.872 14.0071C17.8098 13.8991 17.6628 13.8283 17.4433 13.7227C17.3862 13.6951 17.3241 13.6653 17.2574 13.6318C16.9343 13.4709 15.3626 12.694 15.0656 12.5909C14.7741 12.4809 14.4964 12.5194 14.2764 12.8301C14.2346 12.8887 14.1928 12.9474 14.1513 13.0058C13.8859 13.3791 13.6299 13.7391 13.417 13.9686C13.2231 14.1749 12.9069 14.201 12.6415 14.091C12.6126 14.0789 12.5794 14.0655 12.5423 14.0505C12.1221 13.8808 11.1901 13.5044 10.062 12.5001C9.11052 11.6531 8.46427 10.5985 8.27727 10.2822C8.09367 9.965 8.25204 9.77897 8.39841 9.60704C8.40112 9.60385 8.40382 9.60067 8.40652 9.5975C8.50089 9.48074 8.59247 9.38352 8.6845 9.28581C8.7507 9.21552 8.81714 9.14499 8.88502 9.06675C8.8951 9.05513 8.9049 9.04386 8.91445 9.03289C9.0586 8.86715 9.14443 8.76846 9.24115 8.56213C9.35115 8.349 9.27277 8.129 9.1944 7.96675C9.14047 7.85312 8.80736 7.0449 8.5214 6.35108C8.39903 6.05418 8.2853 5.77823 8.20577 5.58663C7.99265 5.0765 7.8304 5.05725 7.50727 5.0435C7.49737 5.043 7.48737 5.0425 7.47727 5.04199C7.37513 5.03682 7.26265 5.03113 7.13877 5.03113C6.71802 5.03113 6.2794 5.15488 6.01402 5.42575C6.00475 5.43522 5.99508 5.44505 5.98505 5.45525C5.64555 5.80053 4.88927 6.56967 4.88927 8.10287C4.88927 9.63904 5.97925 11.1257 6.18092 11.4008C6.18647 11.4084 6.19136 11.415 6.19552 11.4207C6.20766 11.4367 6.23053 11.4698 6.26382 11.518C6.6756 12.1143 8.68129 15.0189 11.6721 16.258C14.1994 17.3057 14.9501 17.2081 15.5249 17.0858Z" fill="#222222"/>
</svg>
