<svg width="25" height="17" viewBox="0 0 25 17" fill="none" xmlns="http://www.w3.org/2000/svg">
<path fill-rule="evenodd" clip-rule="evenodd" d="M21.9202 0.519867C22.9603 0.799955 23.7804 1.61992 24.0602 2.66009C24.5803 4.55995 24.5603 8.52001 24.5603 8.52001C24.5603 8.52001 24.5603 12.4599 24.0605 14.3599C23.7804 15.3999 22.9604 16.2199 21.9202 16.4998C20.0202 17 12.4204 17 12.4204 17C12.4204 17 4.84022 17 2.92036 16.48C1.88018 16.1999 1.06037 15.3799 0.780282 14.3399C0.280273 12.4599 0.280273 8.5 0.280273 8.5C0.280273 8.5 0.280273 4.55995 0.780282 2.66009C1.06007 1.62006 1.90019 0.779948 2.92021 0.500157C4.82022 0 12.4201 0 12.4201 0C12.4201 0 20.0202 0 21.9202 0.519867ZM16.3203 8.5L10.0004 4.86004V12.14L16.3203 8.5Z" fill="#222222"/>
</svg>
